<?xml version="1.0" encoding="UTF-8"?>
<svg version="1.1" xmlns="http://www.w3.org/2000/svg" width="512" height="512">
<path d="M0 0 C3.53214485 2.01836849 5.80160052 4.07796533 7 8 C7.42755134 12.40286909 7.53592772 16.19610843 5 20 C4.34 20 3.68 20 3 20 C2.60554688 20.87785156 2.60554688 20.87785156 2.203125 21.7734375 C0.94609632 24.09975681 -0.43839018 25.70730492 -2.25 27.625 C-9.52678948 35.83975403 -13.29258655 44.4063771 -16 55 C-16.17942139 55.69440186 -16.35884277 56.38880371 -16.54370117 57.10424805 C-17.18629184 61.1822405 -17.10477971 65.19185447 -17.0625 69.3125 C-17.05798828 70.14845703 -17.05347656 70.98441406 -17.04882812 71.84570312 C-17.03710548 73.89716649 -17.01917203 75.94859273 -17 78 C-15.76068222 78.00364563 -14.52136444 78.00729126 -13.24449158 78.01104736 C-1.46387218 78.04827285 10.31649244 78.10634013 22.09691715 78.18390274 C28.15080279 78.22311647 34.20454863 78.25543127 40.25854492 78.27099609 C46.12024165 78.28633677 51.98155333 78.32108276 57.84307671 78.36830902 C60.05969296 78.38294574 62.27636423 78.3910306 64.49302864 78.39188385 C78.04620778 78.40233028 90.83287458 79.45528053 104.13792419 82.09759521 C109.04896041 83.06355994 113.78516883 83.47118643 118.79296875 83.53125 C121.90965801 84.1932017 123.09906412 85.48711901 125 88 C127.06932419 98.88812633 119.39014511 112.82324844 113.49389648 121.5690918 C111.42915617 124.46297022 109.24636426 127.24560925 107 130 C106.19046875 131.00417969 105.3809375 132.00835937 104.546875 133.04296875 C95.7611933 143.2435225 84.39180834 153.4640729 72 159 C72 159.66 72 160.32 72 161 C73.93088774 162.43152022 75.86278026 163.75450137 77.875 165.0625 C84.08268573 169.23027593 89.59464583 173.82100069 95 179 C95.75925781 179.69609375 96.51851562 180.3921875 97.30078125 181.109375 C113.63301278 196.56716926 124.51953488 219.28621048 125.203125 241.90625 C125.35369547 252.7106463 125.0579783 262.56845498 122 273 C121.73316406 273.97453125 121.46632813 274.9490625 121.19140625 275.953125 C116.87858621 290.29085564 108.69496796 308.13953682 97 318 C93.22843484 319.25718839 89.90066036 319.72736263 86 319 C82.24421474 317.11851676 79.63596605 314.82962541 78.23828125 310.80859375 C76.98416336 302.83887685 80.63343007 298.54985489 85 292 C55.3 292 25.6 292 -5 292 C-2.69 295.96 -0.38 299.92 2 304 C2.29155301 309.75817192 2.1407184 311.55909254 -1.375 316 C-4.9966592 318.75935939 -8.2596806 319.56202458 -12.828125 319.4453125 C-19.14406135 318.15031836 -22.97293535 312.28448757 -26.40966797 307.26196289 C-41.3839997 284.37552661 -48.56888896 258.47041112 -43.03125 231.33203125 C-36.67242578 203.15259892 -17.56256188 180.65299951 6.08984375 164.97265625 C8.84712157 163.103629 11.42942795 161.11610627 14 159 C12.76636719 158.27296875 12.76636719 158.27296875 11.5078125 157.53125 C-6.45998898 146.7422699 -21.62164906 133.35656932 -32 115 C-32.48855469 114.16210938 -32.97710937 113.32421875 -33.48046875 112.4609375 C-44.88824898 91.47062188 -46.7350498 66.7385691 -40.43017578 43.93945312 C-35.09244972 26.39332417 -21.15773925 -2.54016782 0 0 Z M-8 104 C1.09019529 119.90784176 14.42246146 129.16812016 29.9375 138.1875 C30.93281738 138.77700439 31.92813477 139.36650879 32.95361328 139.97387695 C33.90606934 140.51230225 34.85852539 141.05072754 35.83984375 141.60546875 C36.68925537 142.09168701 37.53866699 142.57790527 38.41381836 143.07885742 C42.41202951 144.50293471 45.44220439 143.68959365 49.25073242 142.00366211 C49.94529541 141.59897705 50.6398584 141.19429199 51.35546875 140.77734375 C52.13752686 140.32520508 52.91958496 139.87306641 53.7253418 139.40722656 C54.537854 138.9222168 55.35036621 138.43720703 56.1875 137.9375 C57.45170776 137.19258301 57.45170776 137.19258301 58.74145508 136.43261719 C65.11683451 132.6305549 71.18711508 128.62841008 77 124 C77.7115625 123.45214844 78.423125 122.90429688 79.15625 122.33984375 C84.83320155 117.72186201 89.02091384 112.11678671 93 106 C93 105.67 93 105.34 93 105 C59.67 104.67 26.34 104.34 -8 104 Z M35 178 C33.65035156 178.76376953 33.65035156 178.76376953 32.2734375 179.54296875 C25.14115406 183.58972256 18.51925404 188.03158172 12 193 C11.13246094 193.63808594 10.26492187 194.27617187 9.37109375 194.93359375 C3.26228462 199.56882755 -1.60493557 204.70204454 -6 211 C-6 211.33 -6 211.66 -6 212 C41.025 212.495 41.025 212.495 89 213 C86.23414737 207.46829474 82.19226561 203.50021166 78 199 C77.46503906 198.38769531 76.93007813 197.77539062 76.37890625 197.14453125 C70.61994968 190.84707485 63.17201275 186.50634134 56 182 C55.40832031 181.62713867 54.81664062 181.25427734 54.20703125 180.87011719 C44.89487532 174.63564568 44.89487532 174.63564568 35 178 Z M-18 238 C-19.10949305 242.43797219 -19.18383074 246.33245503 -19.1875 250.875 C-19.19974609 251.66519531 -19.21199219 252.45539063 -19.22460938 253.26953125 C-19.22654297 254.04425781 -19.22847656 254.81898438 -19.23046875 255.6171875 C-19.23457764 256.31440918 -19.23868652 257.01163086 -19.24291992 257.72998047 C-18.92917886 260.66180402 -17.99942547 263.23567381 -17 266 C-0.15067693 266.92201344 16.66976369 267.15849294 33.54077148 267.13037109 C36.98095278 267.12470275 40.4210561 267.12804086 43.86123466 267.13382339 C61.92865761 267.15933037 79.94877065 266.78794996 98 266 C98.33101815 264.24053755 98.65895828 262.48049582 98.9855957 260.72021484 C99.16854691 259.74015472 99.35149811 258.7600946 99.53999329 257.75033569 C100.0540645 254.6767536 100.23443818 251.73998821 100.1875 248.625 C100.18105469 247.66851562 100.17460937 246.71203125 100.16796875 245.7265625 C100.03703467 242.59821863 100.03703467 242.59821863 99 238 C60.39 238 21.78 238 -18 238 Z " fill="#034B21" transform="translate(210,117)"/>
<path d="M0 0 C2.05157684 -0.00986691 4.10221452 -0.04107009 6.15356445 -0.07226562 C7.45229492 -0.07742187 8.75102539 -0.08257812 10.08911133 -0.08789062 C11.85532837 -0.10190918 11.85532837 -0.10190918 13.65722656 -0.11621094 C16.59301758 0.24023438 16.59301758 0.24023438 18.47680664 1.36083984 C20.13021459 4.14472751 19.96458843 6.41737815 19.95629883 9.63867188 C19.95533203 11.56646484 19.95533203 11.56646484 19.9543457 13.53320312 C19.94604736 14.20528809 19.93774902 14.87737305 19.92919922 15.56982422 C19.90600525 17.57311329 19.91034868 19.57666086 19.9152832 21.58007812 C19.86941343 29.9784157 19.14153421 37.98898356 17.59301758 46.24023438 C17.4524292 47.01496094 17.31184082 47.7896875 17.16699219 48.58789062 C12.94102754 70.64271042 2.5904297 93.28526768 -16.2487793 106.53564453 C-25.75605663 112.62858224 -35.85931277 118.06506792 -47.40698242 117.24023438 C-51.49904574 115.43211337 -54.10505826 113.07677465 -56.40698242 109.24023438 C-57.1569322 104.59054572 -57.10207439 101.54485234 -54.40698242 97.61523438 C-50.59346581 93.59238391 -45.53935221 92.25826354 -40.44189453 90.49609375 C-28.19643575 86.17698638 -20.53242139 77.21248789 -14.61401367 65.77539062 C-10.52640099 56.64134253 -7.13959588 47.34150392 -7.40698242 37.24023438 C-7.95225586 37.86929688 -8.4975293 38.49835938 -9.05932617 39.14648438 C-23.37963504 55.40064692 -39.77081229 66.86071271 -62.02026367 68.42382812 C-64.46948242 68.49023438 -64.46948242 68.49023438 -68.40698242 68.24023438 C-70.40698242 66.24023438 -70.40698242 66.24023438 -70.46948242 63.61523438 C-67.40595044 53.88401515 -58.68018389 49.77421817 -50.25756836 45.25341797 C-37.38114304 38.4647327 -37.38114304 38.4647327 -27.40698242 28.24023438 C-44.89937046 29.42615899 -61.20148634 36.65120145 -73.40698242 49.24023438 C-73.99092773 49.81515625 -74.57487305 50.39007813 -75.17651367 50.98242188 C-82.13059851 58.34142811 -85.62799775 67.8041552 -85.36401367 77.79882812 C-85.34274414 79.07177734 -85.32147461 80.34472656 -85.29956055 81.65625 C-85.262486 83.66883318 -85.21939903 85.68056661 -85.16015625 87.69262695 C-85.10545979 89.64426359 -85.07817526 91.59660723 -85.05151367 93.54882812 C-85.02420166 94.71212646 -84.99688965 95.8754248 -84.96875 97.07397461 C-85.50238653 100.92953573 -86.708043 102.48956198 -89.40698242 105.24023438 C-93.48622453 107.95972912 -96.62246766 108.08269046 -101.40698242 107.24023438 C-104.66132486 105.88114117 -106.48425269 104.18946209 -108.40698242 101.24023438 C-114.08156296 85.60989511 -112.67478544 67.05463556 -105.79223633 52.05053711 C-94.49837377 29.01793534 -74.8570037 15.74366258 -51.26635742 7.08789062 C-34.81804456 1.61200757 -17.23861443 0.05024004 0 0 Z " fill="#044B21" transform="translate(366.406982421875,75.759765625)"/>
<path d="M0 0 C0.66 0.33 1.32 0.66 2 1 C1.49575843 5.72394737 -0.68857567 8.89752258 -3.4375 12.625 C-3.87908447 13.23166504 -4.32066895 13.83833008 -4.77563477 14.46337891 C-9.07599218 20.27171311 -13.61469825 26.15816907 -19 31 C-19.99 31 -20.98 31 -22 31 C-22 30.34 -22 29.68 -22 29 C-21.34 29 -20.68 29 -20 29 C-19.731875 28.4225 -19.46375 27.845 -19.1875 27.25 C-17.9611378 24.92636635 -16.75156566 22.96175354 -15 21 C-14.01 21 -13.02 21 -12 21 C-11.938125 20.443125 -11.87625 19.88625 -11.8125 19.3125 C-10.67629251 16.07867869 -8.40160569 14.40160569 -6 12 C-5.65117888 10.67063447 -5.31933588 9.33675483 -5 8 C-4.19550534 6.55454731 -3.33904732 5.13699588 -2.4375 3.75 C-1.98246094 3.04359375 -1.52742188 2.3371875 -1.05859375 1.609375 C-0.70925781 1.07828125 -0.35992187 0.5471875 0 0 Z " fill="#114723" transform="translate(326,227)"/>
<path d="M0 0 C0.99 0 1.98 0 3 0 C1.70302958 3.50182013 -0.32203276 5.10262224 -3.203125 7.36328125 C-6.95785987 10.78335497 -9.9221466 14.97691751 -13 19 C-12.01 19.66 -11.02 20.32 -10 21 C-11.98 21.33 -13.96 21.66 -16 22 C-14.56485356 14.41422594 -14.56485356 14.41422594 -12.125 12.625 C-9.84854505 11.10499558 -9.84854505 11.10499558 -8.625 8.5625 C-6.59677542 5.36414585 -4.17282205 4.00025738 -1 2 C-0.67 1.34 -0.34 0.68 0 0 Z " fill="#0E4723" transform="translate(218,309)"/>
<path d="M0 0 C0.33 0.99 0.66 1.98 1 3 C0.40832031 3.61746094 -0.18335938 4.23492187 -0.79296875 4.87109375 C-5.79609984 10.23334029 -9.81855868 15.38132309 -13 22 C-13.99 22 -14.98 22 -16 22 C-14.41037341 17.96479403 -12.71767682 13.98188718 -11 10 C-10.34 10 -9.68 10 -9 10 C-9 9.34 -9 8.68 -9 8 C-8.01 8 -7.02 8 -6 8 C-5.7525 7.05125 -5.505 6.1025 -5.25 5.125 C-4 2 -4 2 -1.875 0.625 C-1.25625 0.41875 -0.6375 0.2125 0 0 Z " fill="#104924" transform="translate(212,136)"/>
<path d="M0 0 C0.66 0.66 1.32 1.32 2 2 C1.71866889 8.47061544 -0.31713443 15.1347008 -3 21 C-3.99 21.33 -4.98 21.66 -6 22 C-5.49992908 16.29919157 -4.39117934 12.18088857 -2 7 C-1.63215869 5.6757713 -1.28797019 4.34386088 -1 3 C-0.67 2.01 -0.34 1.02 0 0 Z " fill="#0D4A2A" transform="translate(331,381)"/>
<path d="M0 0 C0.99 0 1.98 0 3 0 C2.31763207 3.04280395 1.34799107 5.81963333 0.125 8.6875 C-0.20242188 9.47511719 -0.52984375 10.26273438 -0.8671875 11.07421875 C-2 13 -2 13 -5 14 C-3.125 3.875 -3.125 3.875 0 0 Z " fill="#104926" transform="translate(285,128)"/>
<path d="M0 0 C0 1.98 0 3.96 0 6 C-0.86625 6.0928125 -0.86625 6.0928125 -1.75 6.1875 C-4.86792094 7.3134159 -6.01380163 9.41794211 -8 12 C-8.66 12 -9.32 12 -10 12 C-9.6875 10.0625 -9.6875 10.0625 -9 8 C-8.01 7.67 -7.02 7.34 -6 7 C-5.31867549 5.33927151 -4.65257873 3.672233 -4 2 C-1 0 -1 0 0 0 Z " fill="#39714E" transform="translate(362,107)"/>
<path d="M0 0 C0.99 0.33 1.98 0.66 3 1 C2.40312566 4.34249629 1.26396123 6.46436342 -1 9 C-1.66 9 -2.32 9 -3 9 C-3 8.01 -3 7.02 -3 6 C-2.34 6 -1.68 6 -1 6 C-0.67 4.02 -0.34 2.04 0 0 Z " fill="#124725" transform="translate(316,416)"/>
<path d="M0 0 C0.99 0 1.98 0 3 0 C2.75 2.375 2.75 2.375 2 5 C-0.0625 6.3125 -0.0625 6.3125 -2 7 C-1.42415568 4.61435923 -0.77772405 2.33317216 0 0 Z " fill="#25673C" transform="translate(340,101)"/>
<path d="M0 0 C0.66 0 1.32 0 2 0 C1.25 6.75 1.25 6.75 -1 9 C-1.80967438 6.08517222 -2.21845993 4.53886783 -1.0625 1.6875 C-0.711875 1.130625 -0.36125 0.57375 0 0 Z " fill="#0D4A28" transform="translate(331,215)"/>
<path d="M0 0 C0.66 0.33 1.32 0.66 2 1 C1.60196439 3.88575819 1.20990931 4.82189513 -1.0625 6.75 C-1.701875 7.1625 -2.34125 7.575 -3 8 C-3 4.42424104 -1.91159393 2.94704065 0 0 Z " fill="#0E4C26" transform="translate(209,426)"/>
<path d="M0 0 C0.66 0 1.32 0 2 0 C2 2.64 2 5.28 2 8 C1.01 7.34 0.02 6.68 -1 6 C-1.25 3.4375 -1.25 3.4375 -1 1 C-0.67 0.67 -0.34 0.34 0 0 Z " fill="#0C4A27" transform="translate(310,354)"/>
<path d="M0 0 C0.33 0.66 0.66 1.32 1 2 C0.0625 4.125 0.0625 4.125 -1 6 C-1.99 6 -2.98 6 -4 6 C-3.6875 4.125 -3.6875 4.125 -3 2 C-2.01 1.34 -1.02 0.68 0 0 Z " fill="#104927" transform="translate(324,406)"/>
</svg>
